<?xml version="1.0" encoding="UTF-8"?>
<svg xmlns="http://www.w3.org/2000/svg" xmlns:xlink="http://www.w3.org/1999/xlink" width="px" height="px" viewBox="0 0 320 320" version="1.1">
<g id="surface1">
<path style=" stroke:none;fill-rule:nonzero;fill:rgb(0%,0%,0%);fill-opacity:1;" d="M 12 24 C 5.351562 24 0 29.351562 0 36 C 0 42.648438 5.351562 48 12 48 L 34.648438 48 C 36.601562 48 38.25 49.398438 38.601562 51.300781 L 64.648438 194.449219 C 67.75 211.550781 82.648438 224 100.050781 224 L 228 224 C 234.648438 224 240 218.648438 240 212 C 240 205.351562 234.648438 200 228 200 L 100.050781 200 C 94.25 200 89.300781 195.851562 88.25 190.148438 L 85.699219 176 L 237.5 176 C 252.898438 176 266.101562 165.050781 268.949219 149.898438 L 284.449219 66.949219 C 286.300781 57.101562 278.75 48 268.699219 48 L 62.351562 48 L 62.148438 47 C 59.75 33.699219 48.148438 24 34.601562 24 Z M 104 288 C 117.25 288 128 277.25 128 264 C 128 250.75 117.25 240 104 240 C 90.75 240 80 250.75 80 264 C 80 277.25 90.75 288 104 288 M 216 288 C 229.25 288 240 277.25 240 264 C 240 250.75 229.25 240 216 240 C 202.75 240 192 250.75 192 264 C 192 277.25 202.75 288 216 288 "/>
</g>
</svg>
