<?xml version="1.0" encoding="UTF-8"?>
<svg xmlns="http://www.w3.org/2000/svg" xmlns:xlink="http://www.w3.org/1999/xlink" width="px" height="px" viewBox="0 0 12 12" version="1.1">
<g id="surface1">
<path style=" stroke:none;fill-rule:nonzero;fill:rgb(12.156863%,12.156863%,12.156863%);fill-opacity:1;" d="M 3.5 11 C 3.226562 11 2.988281 10.902344 2.792969 10.707031 C 2.597656 10.511719 2.5 10.273438 2.5 10 C 2.5 9.726562 2.597656 9.488281 2.792969 9.292969 C 2.988281 9.097656 3.226562 9 3.5 9 C 3.773438 9 4.011719 9.097656 4.207031 9.292969 C 4.402344 9.488281 4.5 9.726562 4.5 10 C 4.5 10.273438 4.402344 10.511719 4.207031 10.707031 C 4.011719 10.902344 3.773438 11 3.5 11 M 8.5 11 C 8.226562 11 7.988281 10.902344 7.792969 10.707031 C 7.597656 10.511719 7.5 10.273438 7.5 10 C 7.5 9.726562 7.597656 9.488281 7.792969 9.292969 C 7.988281 9.097656 8.226562 9 8.5 9 C 8.773438 9 9.011719 9.097656 9.207031 9.292969 C 9.402344 9.488281 9.5 9.726562 9.5 10 C 9.5 10.273438 9.402344 10.511719 9.207031 10.707031 C 9.011719 10.902344 8.773438 11 8.5 11 M 3.074219 3 L 4.273438 5.5 L 7.773438 5.5 L 9.148438 3 Z M 2.601562 2 L 9.976562 2 C 10.167969 2 10.3125 2.085938 10.414062 2.257812 C 10.511719 2.425781 10.515625 2.601562 10.425781 2.773438 L 8.648438 5.976562 C 8.558594 6.140625 8.433594 6.269531 8.28125 6.363281 C 8.128906 6.453125 7.957031 6.5 7.773438 6.5 L 4.050781 6.5 L 3.5 7.5 L 9.5 7.5 L 9.5 8.5 L 3.5 8.5 C 3.125 8.5 2.839844 8.335938 2.648438 8.007812 C 2.457031 7.675781 2.449219 7.351562 2.625 7.023438 L 3.300781 5.800781 L 1.5 2 L 0.5 2 L 0.5 1 L 2.125 1 Z M 4.273438 5.5 L 7.773438 5.5 Z M 4.273438 5.5 "/>
</g>
</svg>
